<?xml version="1.0" encoding="utf-8"?>
<!-- Generator: Adobe Illustrator 22.1.0, SVG Export Plug-In . SVG Version: 6.00 Build 0)  -->
<svg version="1.1" id="Layer_1" xmlns="http://www.w3.org/2000/svg" xmlns:xlink="http://www.w3.org/1999/xlink" x="0px" y="0px"
	 width="960px" height="560px" viewBox="0 0 960 560" style="enable-background:new 0 0 960 560;" xml:space="preserve">
<style type="text/css">
	.st0{fill:#4a5df2;}
</style>
<g id="XMLID_79_">
	<path class="st0" d="M131.3,216.4l14.2,0l-3.4,117l68.8,0.5l-0.7,26.5l-97.4-0.8l3.7-127.9C116.8,223.5,123.3,216.4,131.3,216.4z"
		/>
</g>
<g id="XMLID_76_">
	<path class="st0" d="M276.6,363.5c-33.5-1.4-49.6-21.3-48.6-59.5c1-38.2,18.4-57.2,52.1-57.4c35.3,0,51.4,22,48.1,66.2l-71.9-0.4
		c0.6,17.2,7.7,26,21.3,26.1c6.5,0,12.7-2.7,18.3-8c2.6-2.8,5.8-4,9.6-4l20.7,0.1C319.5,350.6,304,363.7,276.6,363.5z M257.4,292.2
		l41.7,0.2c-1.3-14.9-8-22.6-20-22.6C267.2,269.7,259.9,277.4,257.4,292.2z"/>
</g>
<path class="st0" d="M776.5,447c-2.1-2.2-5.2-3.4-9.3-3.4c-8.9,0-13.4,5-13.7,15.2c-0.3,10.2,3.9,15.4,12.7,15.8c0.1,0,0.1,0,0.2,0
	c6.4,0,10.5-2.8,12.5-8.6l-4.6,0c-0.9,0-1.5,0.3-2.1,0.9c-1.8,1.7-3.7,2.5-5.7,2.5c0,0,0,0-0.1,0c-3,0-6.6-1.4-6.8-8.1l0-0.9
	l20.2,0.1C780.1,454.3,779,449.8,776.5,447z M759.8,456.4l0.2-1c1-5.8,4.3-7,6.9-7c0,0,0,0,0,0c2.6,0,5.9,1.2,6.4,7.1l0.1,0.9
	L759.8,456.4z"/>
<g id="XMLID_70_">
	<path class="st0" d="M371.3,277.9l-28.2-0.1c3.9-20.9,18.8-31.2,44.7-31.1c31.1,0,46.7,10.3,46.8,31.4l-0.9,38.7
		c-0.8,31.4-19.9,45.3-50.5,47.2c-27,1.9-45.4-10.9-44.7-35.9c1.3-27.2,21-34.4,49.5-37c12.2-1.5,18.4-5.1,18.6-11.3
		c-0.5-6.4-6.4-9.7-18.1-9.7C378.5,270,372.9,272.6,371.3,277.9z M406.1,315.4l0.3-10.5c-6.7,2.8-14.4,5.1-22.7,6.8
		c-11.3,2.1-17.2,7.4-17.4,15.8c0.4,9,5,13.3,13.9,13.4C395.9,340.9,405.7,331.5,406.1,315.4z"/>
</g>
<g id="XMLID_68_">
	<path class="st0" d="M447.7,303.5c1.7-36.8,21.7-55.1,59.8-55l4.1,0l-0.7,29.8l-9.7,0c-16,0-24.1,8.3-24.5,25l-1.4,59.4l-29-0.2
		L447.7,303.5z"/>
</g>
<path class="st0" d="M672.5,449.9C672.6,449.9,672.6,449.9,672.5,449.9l2,0l0.2-6.8h-0.3c0,0,0,0,0,0c-10.4,0-15.7,4.9-16.2,14.9
	l-0.4,15.9l6.6,0.1l0.4-16.1C664.9,452.6,667.6,449.9,672.5,449.9z"/>
<g id="XMLID_64_">
	<path class="st0" d="M605.9,363.7c-9.6-0.7-14.3-5.4-14.1-14.5l1.3-59.2c-0.4-12-6.8-17.8-19.7-17.9c-12.8,0-19.5,5.8-20,17.7
		l-1.6,73.4l-29.3-0.2l1.5-67.4c0.7-32.7,17.6-48.9,50.4-48.8c33,0,48.8,16.4,47.9,49.2l-1.4,67.8L605.9,363.7z"/>
</g>
<g id="XMLID_62_">
	<path class="st0" d="M761.5,364.1c-9.4-0.7-14-5.4-13.9-14.5l1.1-59.3c-0.4-12-6.7-17.9-19.3-17.9c-12.5,0-19,5.8-19.5,17.8
		l-1.4,73.5l-28.6-0.3l1.3-67.5c0.6-32.7,17-48.9,49.1-48.9c32.2,0,47.7,16.4,46.9,49.3l-1.2,68L761.5,364.1z"/>
</g>
<g id="XMLID_59_">
	<path class="st0" d="M789.4,309.3c0.7-40.2,20.1-60.3,58.4-60.9c38.6-0.2,57.9,17.8,57.3,54.3l-1.2,72.1
		c-0.5,30.7-20.5,46-60.2,46.2c-28.1-0.3-45.5-13.4-52.3-39.1l34.3,0.3c1.9,8.7,9.1,13,22,13.1c16.4,0.2,25-9.2,25.3-28.1
		c0,0,0,0.2,0.2-12.4c-8.2,11.9-20.2,17.8-35.7,17.6C804.5,372.2,788.6,350.9,789.4,309.3z M873.8,310.6
		c0.6-24.6-7.8-36.8-25.6-36.8c-17.7,0-26.6,12.1-27,36.6c0.3,23.4,8.5,35.1,25.3,35.3C863.4,345.7,872.5,334.1,873.8,310.6z"/>
</g>
<g id="XMLID_58_">
	<polygon class="st0" points="637,250 634,362.3 660.3,362.3 664.9,250 	"/>
</g>
<g id="XMLID_57_">
	<polygon class="st0" points="665.3,239 666.9,200.6 638,215.2 637.3,239 	"/>
</g>
<g id="XMLID_55_">
	<g id="XMLID_56_">
		<path class="st0" d="M522.3,373.7l-0.2,0l-1.4,32.6c-0.6,13.4-11.1,24.3-24.4,25.4l-374.6,30.9c-1,0.1-2,0.1-2.9,0.1
			c-9.4,0-18.2-3.8-24.8-10.6c-6.6-6.8-10-15.8-9.6-25.3l10-264.7c0.7-19.3,16.7-33.8,37-33.8c1.9,0,3.7,0.1,5.6,0.4l374.3,48
			c10.8,1.4,18.8,10.9,18.3,22l-2.4,55.5c7.3-8.3,17.4-13.8,30-16.3l1.6-37.9c1.1-26.1-17.9-48.8-43.8-52.3L140.9,99.7
			C102,94.5,66.6,121.8,65.1,161L55,425.7c-1.5,38.3,30.9,69.2,69.1,66.1l374.6-30.9c28.1-2.3,50-25.2,51.2-53.3l1.4-33.6
			L522.3,373.7z"/>
	</g>
</g>
<g id="XMLID_43_">
	<g id="XMLID_53_">
		<path class="st0" d="M603.7,370.3c5.9,0,11.1,1.5,15.4,4.5c3.9,3.2,6.1,7.6,6.5,13.4h-6.5c-1.9,0-3.4-0.9-4.6-2.6
			c-2-4.1-5.6-6.2-10.5-6.2c-8.8,0-13.3,5.6-13.4,16.7c-0.1,11.2,4.5,17.2,13.9,17.9c7.1,0,11.2-4.7,12.3-10.9h-6.2
			c-2.9,0-5.3-2.3-5.3-5.3v-3.2h20.8v27.6h-2.6c-2.5,0-4.9-1.7-5.1-4l-0.4-2.5c-3.6,4.7-7.3,7.2-14.6,7.2
			c-14.6,0-23.5-11.3-23.5-26.3C579.7,381.5,588.7,369.7,603.7,370.3z"/>
	</g>
	<g id="XMLID_51_">
		<path class="st0" d="M647.7,376v46.2h-10v-51.1h5.2C645.5,371.1,647.7,373.3,647.7,376z"/>
	</g>
	<g id="XMLID_48_">
		<path class="st0" d="M670.1,392.8h-10c1.2-7.4,6.4-11,15.5-11c11,0,16.5,3.6,16.7,11v13.5c0,11-6.6,15.8-17.3,16.6
			c-9.5,0.8-16.1-3.7-16.1-12.5c0.2-9.5,7.1-12.1,17.2-13.1c4.3-0.5,6.5-1.8,6.5-4c-0.2-2.3-2.3-3.4-6.5-3.4
			C672.5,390,670.6,390.9,670.1,392.8z M682.7,405.9v-3.7c-2.3,1-5,1.8-8,2.4c-4,0.8-6,2.6-6,5.6c0.2,3.2,1.9,4.7,5,4.7
			C679.3,414.8,682.7,411.5,682.7,405.9z"/>
	</g>
	<g id="XMLID_46_">
		<path class="st0" d="M721,414.9c4.2,0,6.3-1.2,6.3-3.8c0-2-3.5-3.7-10.3-4.9c-8.8-1.6-13.3-5.5-13.4-11.7
			c0-8.6,6.8-12.6,15.8-12.8c5.1,0,9.2,1.1,12.2,3.4c2.9,2.3,4.5,5.6,4.7,9.7H730c-2.3-0.1-3.8-0.9-4.4-2.5c-0.7-1.7-2.7-2.7-6-2.7
			c-3.9,0-5.9,1.1-5.9,3.1c0,2,2.6,3.6,7.7,4.6c6.8,1.4,11.2,3.1,13.4,5.1c1.9,2,2.8,4.4,2.8,7.1c0,9.8-7.7,13.4-18.2,13.4
			c-5.6,0-9.8-1.2-12.5-3.5c-3-2.3-4.5-5.7-4.5-10.3h10.2C712.9,413.4,716.1,414.9,721,414.9z"/>
	</g>
	<g id="XMLID_44_">
		<path class="st0" d="M765.8,414.9c4.2,0,6.3-1.2,6.3-3.8c0-2-3.5-3.7-10.3-4.9c-8.8-1.6-13.3-5.5-13.4-11.7
			c0-8.6,6.8-12.6,15.8-12.8c5.1,0,9.2,1.1,12.2,3.4c2.9,2.3,4.5,5.6,4.7,9.7h-6.3c-2.3-0.1-3.8-0.9-4.4-2.5c-0.7-1.7-2.7-2.7-6-2.7
			c-3.9,0-5.9,1.1-5.9,3.1c0,2,2.6,3.6,7.7,4.6c6.8,1.4,11.2,3.1,13.4,5.1c1.9,2,2.8,4.4,2.8,7.1c0,9.8-7.7,13.4-18.2,13.4
			c-5.6,0-9.8-1.2-12.5-3.5c-3-2.3-4.5-5.7-4.5-10.3h10.2C757.8,413.4,760.9,414.9,765.8,414.9z"/>
	</g>
</g>
<polygon class="st0" points="607.3,455.1 607.4,450.2 589.7,449.8 589.9,437.3 610.5,437.7 610.6,432.6 583.4,432.1 582.6,473.5 
	610.6,474 610.7,468.9 589.4,468.6 589.6,454.7 "/>
<path class="st0" d="M622,470.9c0.9,1,1.9,1.8,3.2,2.3c1.3,0.5,2.7,0.8,4.3,0.8c1.7,0,3.2-0.4,4.6-1.2c1.4-0.8,2.7-2,3.7-3.4
	l1.3-1.9l0.5,6l5.9,0.1l0.6-30.4l-6.6-0.1l-0.5,22c-0.6,1.2-1.5,2.2-2.7,2.9c-1.2,0.7-2.7,1-4.4,1c-1.1,0-2-0.2-2.7-0.5
	c-0.8-0.3-1.5-0.8-2-1.5c-0.5-0.7-0.8-1.5-1-2.5c-0.2-0.9-0.3-2.1-0.2-3.5l0.3-18.2l-6.6-0.1l-0.3,18.1c0,2.3,0.2,4.3,0.7,6
	C620.4,468.6,621.1,469.9,622,470.9z"/>
<path class="st0" d="M681.5,452.7c-0.7,1.9-1,4-1.1,6.2l0,0.6c0,2.3,0.2,4.4,0.8,6.2c0.6,1.9,1.5,3.5,2.7,4.9
	c1.2,1.4,2.7,2.5,4.4,3.3c1.8,0.8,3.8,1.2,6.1,1.3c2.3,0,4.3-0.3,6.1-1c1.8-0.7,3.3-1.8,4.5-3.1c1.2-1.3,2.2-3,2.9-4.8
	c0.7-1.9,1-4,1.1-6.2l0-0.6c0-2.2-0.2-4.3-0.8-6.2c-0.6-1.9-1.5-3.5-2.7-4.9c-1.2-1.4-2.7-2.5-4.4-3.3c-1.7-0.8-3.8-1.2-6.1-1.3
	c-2.3,0-4.3,0.3-6.1,1.1c-1.8,0.7-3.3,1.8-4.5,3.1C683.1,449.2,682.2,450.8,681.5,452.7z M687,459c0-1.4,0.2-2.7,0.5-3.9
	c0.3-1.2,0.8-2.4,1.4-3.3c0.6-1,1.5-1.8,2.5-2.3c1-0.6,2.2-0.8,3.6-0.8c1.4,0,2.6,0.3,3.6,1c1,0.6,1.8,1.4,2.4,2.4
	c0.6,1,1,2.1,1.2,3.4c0.2,1.2,0.4,2.5,0.3,3.9l0,0.6c0,1.4-0.2,2.7-0.5,3.9c-0.3,1.3-0.8,2.4-1.4,3.3c-0.6,1-1.5,1.8-2.4,2.3
	c-1,0.5-2.1,0.8-3.4,0.8c-0.1,0-0.1,0-0.2,0c-1.4,0-2.6-0.3-3.6-1c-1-0.6-1.8-1.4-2.4-2.4c-0.6-1-1-2.1-1.3-3.4
	c-0.2-1.2-0.4-2.6-0.3-4L687,459z"/>
<path class="st0" d="M741.7,471.7c1-1.3,1.8-3,2.4-4.8c0.6-1.9,0.9-4,0.9-6.2l0-0.6c0-2.3-0.2-4.5-0.7-6.4c-0.5-1.9-1.2-3.6-2.2-4.9
	c-1-1.3-2.2-2.4-3.6-3.1c-1.4-0.7-3.1-1.1-5-1.2c-1.6,0-3.1,0.2-4.4,0.8c-1.2,0.6-2.3,1.4-3.3,2.5l-1.3,1.5l-0.3-4.4l-6-0.1
	l-0.8,42.7l6.6,0.1l0.3-16.4l1.4,1.6c0.9,1,1.9,1.8,3.1,2.3c1.2,0.6,2.6,0.9,4.2,0.9c1.8,0,3.5-0.3,5-1.1
	C739.5,474.1,740.7,473.1,741.7,471.7z M738.4,460.5c0,1.4-0.2,2.7-0.4,3.9c-0.3,1.3-0.7,2.4-1.3,3.3c-0.6,1-1.4,1.8-2.3,2.4
	c-0.9,0.6-2,0.8-3.3,0.8c-0.1,0-0.1,0-0.2,0c-1.6,0-3-0.4-4-1.1c-1-0.7-1.8-1.6-2.4-2.8l-0.1-0.2l0.4-14c0.6-1.2,1.4-2.1,2.5-2.7
	c1.1-0.6,2.4-0.9,4-0.9c1.3,0,2.5,0.3,3.4,0.9c0.9,0.6,1.7,1.4,2.3,2.4c0.6,0.9,1,2.1,1.2,3.3c0.2,1.2,0.3,2.6,0.3,4L738.4,460.5z"
	/>
</svg>
