<!-- Generated by IcoMoon.io -->
<svg version="1.1" xmlns="http://www.w3.org/2000/svg" width="384" height="448" viewBox="0 0 384 448">
<title></title>
<g id="icomoon-ignore">
</g>
<path fill="#fff" d="M242.75 311v52.75c0 11.25-3.25 16.75-9.75 16.75-3.75 0-7.5-1.75-11.25-5.5v-75.25c3.75-3.75 7.5-5.5 11.25-5.5 6.5 0 9.75 5.75 9.75 16.75zM327.25 311.25v11.5h-22.5v-11.5c0-11.25 3.75-17 11.25-17s11.25 5.75 11.25 17zM85.75 256.75h26.75v-23.5h-78v23.5h26.25v142.25h25v-142.25zM157.75 399h22.25v-123.5h-22.25v94.5c-5 7-9.75 10.5-14.25 10.5-3 0-4.75-1.75-5.25-5.25-0.25-0.75-0.25-3.5-0.25-8.75v-91h-22.25v97.75c0 8.75 0.75 14.5 2 18.25 2 6.25 7.25 9.25 14.5 9.25 8 0 16.5-5 25.5-15.25v13.5zM265 362v-49.25c0-11.5-0.5-19.75-2.25-24.75-2.75-9.25-9-14-17.75-14-8.25 0-16 4.5-23.25 13.5v-54.25h-22.25v165.75h22.25v-12c7.5 9.25 15.25 13.75 23.25 13.75 8.75 0 15-4.75 17.75-13.75 1.75-5.25 2.25-13.5 2.25-25zM349.5 359.5v-3.25h-22.75c0 9-0.25 14-0.5 15.25-1.25 6-4.5 9-10 9-7.75 0-11.5-5.75-11.5-17.25v-21.75h44.75v-25.75c0-13.25-2.25-22.75-6.75-29-6.5-8.5-15.25-12.75-26.5-12.75-11.5 0-20.25 4.25-26.75 12.75-4.75 6.25-7 15.75-7 29v43.25c0 13.25 2.5 23 7.25 29 6.5 8.5 15.25 12.75 27 12.75s21-4.5 27-13.25c2.75-4 4.75-8.5 5.25-13.5 0.5-2.25 0.5-7.25 0.5-14.5zM197.5 131.25v-52.5c0-11.5-3.25-17.25-10.75-17.25-7.25 0-10.75 5.75-10.75 17.25v52.5c0 11.5 3.5 17.5 10.75 17.5 7.5 0 10.75-6 10.75-17.5zM377.25 319c0 28.75-0.25 59.5-6.5 87.5-4.75 19.75-20.75 34.25-40 36.25-46 5.25-92.5 5.25-138.75 5.25s-92.75 0-138.75-5.25c-19.25-2-35.5-16.5-40-36.25-6.5-28-6.5-58.75-6.5-87.5v0c0-29 0.25-59.5 6.5-87.5 4.75-19.75 20.75-34.25 40.25-36.5 45.75-5 92.25-5 138.5-5s92.75 0 138.75 5c19.25 2.25 35.5 16.75 40 36.5 6.5 28 6.5 58.5 6.5 87.5zM127.75 0h25.5l-30.25 99.75v67.75h-25v-67.75c-2.25-12.25-7.25-29.75-15.25-53-5.5-15.5-11-31.25-16.25-46.75h26.5l17.75 65.75zM220.25 83.25v43.75c0 13.25-2.25 23.25-7 29.5-6.25 8.5-15 12.75-26.5 12.75-11.25 0-20-4.25-26.25-12.75-4.75-6.5-7-16.25-7-29.5v-43.75c0-13.25 2.25-23 7-29.25 6.25-8.5 15-12.75 26.25-12.75 11.5 0 20.25 4.25 26.5 12.75 4.75 6.25 7 16 7 29.25zM304 42.75v124.75h-22.75v-13.75c-9 10.5-17.5 15.5-25.75 15.5-7.25 0-12.5-3-14.75-9.25-1.25-3.75-2-9.75-2-18.75v-98.5h22.75v91.75c0 5.25 0 8.25 0.25 8.75 0.5 3.5 2.25 5.5 5.25 5.5 4.5 0 9.25-3.5 14.25-10.75v-95.25h22.75z"></path>
</svg>
