<?xml version="1.0" encoding="iso-8859-1"?>
<!-- Generator: Adobe Illustrator 19.0.0, SVG Export Plug-In . SVG Version: 6.00 Build 0)  -->
<svg version="1.1" id="Capa_1" xmlns="http://www.w3.org/2000/svg" xmlns:xlink="http://www.w3.org/1999/xlink" x="0px" y="0px"
	 viewBox="0 0 512 512" style="enable-background:new 0 0 512 512;" xml:space="preserve">
<g>
	<g>
		<path fill="#4a5df2" d="M492,17.997H20c-11.046,0-20,8.954-20,20v320c0,11.046,8.954,20,20,20h160.169l-23.532,90.992
			c-2.766,10.694,3.662,21.605,14.355,24.371c10.741,2.779,21.617-3.709,24.371-14.355l26.123-101.008h69.028l26.123,101.008
			c2.753,10.643,13.626,17.134,24.371,14.355c10.693-2.766,17.121-13.677,14.355-24.371l-23.532-90.992H492c11.046,0,20-8.954,20-20
			v-320C512,26.951,503.046,17.997,492,17.997z M472,337.997H40v-280h432V337.997z"/>
	</g>
</g>
<g>
</g>
<g>
</g>
<g>
</g>
<g>
</g>
<g>
</g>
<g>
</g>
<g>
</g>
<g>
</g>
<g>
</g>
<g>
</g>
<g>
</g>
<g>
</g>
<g>
</g>
<g>
</g>
<g>
</g>
</svg>
