<!-- Generated by IcoMoon.io -->
<svg version="1.1" xmlns="http://www.w3.org/2000/svg" width="256" height="448" viewBox="0 0 256 448">
<title></title>
<g id="icomoon-ignore">
</g>
<path fill="#4a5df2" d="M184 144c0 4.25-3.75 8-8 8s-8-3.75-8-8c0-17.25-26.75-24-40-24-4.25 0-8-3.75-8-8s3.75-8 8-8c23.25 0 56 12.25 56 40zM224 144c0-50-50.75-80-96-80s-96 30-96 80c0 16 6.5 32.75 17 45 4.75 5.5 10.25 10.75 15.25 16.5 17.75 21.25 32.75 46.25 35.25 74.5h57c2.5-28.25 17.5-53.25 35.25-74.5 5-5.75 10.5-11 15.25-16.5 10.5-12.25 17-29 17-45zM256 144c0 25.75-8.5 48-25.75 67s-40 45.75-42 72.5c7.25 4.25 11.75 12.25 11.75 20.5 0 6-2.25 11.75-6.25 16 4 4.25 6.25 10 6.25 16 0 8.25-4.25 15.75-11.25 20.25 2 3.5 3.25 7.75 3.25 11.75 0 16.25-12.75 24-27.25 24-6.5 14.5-21 24-36.75 24s-30.25-9.5-36.75-24c-14.5 0-27.25-7.75-27.25-24 0-4 1.25-8.25 3.25-11.75-7-4.5-11.25-12-11.25-20.25 0-6 2.25-11.75 6.25-16-4-4.25-6.25-10-6.25-16 0-8.25 4.5-16.25 11.75-20.5-2-26.75-24.75-53.5-42-72.5s-25.75-41.25-25.75-67c0-68 64.75-112 128-112s128 44 128 112z"></path>
</svg>
