<!-- Generated by IcoMoon.io -->
<svg version="1.1" xmlns="http://www.w3.org/2000/svg" width="384" height="448" viewBox="0 0 384 448">
<title></title>
<g id="icomoon-ignore">
</g>
<path fill="#4a5df2" d="M59.25 353.5h57.75v-173.5h-57.75v173.5zM120.75 126.5c-0.25-17-12.5-30-32.25-30s-32.75 13-32.75 30c0 16.5 12.5 30 32 30h0.25c20.25 0 32.75-13.5 32.75-30zM267 353.5h57.75v-99.5c0-53.25-28.5-78-66.5-78-31 0-44.75 17.25-52.25 29.25h0.5v-25.25h-57.75s0.75 16.25 0 173.5v0h57.75v-97c0-5 0.25-10.25 1.75-14 4.25-10.25 13.75-21 29.75-21 20.75 0 29 15.75 29 39.25v92.75zM384 104v240c0 39.75-32.25 72-72 72h-240c-39.75 0-72-32.25-72-72v-240c0-39.75 32.25-72 72-72h240c39.75 0 72 32.25 72 72z"></path>
</svg>
